<svg width="168" height="58" viewBox="0 0 168 58" fill="none" xmlns="http://www.w3.org/2000/svg">
<g filter="url(#filter0_d_21_24)">
<path d="M27.25 8.8C30.45 8.8 33.0167 9.86667 34.95 12C36.8833 14.1 37.85 17 37.85 20.7V37H29.35V21.85C29.35 19.9833 28.8667 18.5333 27.9 17.5C26.9333 16.4667 25.6333 15.95 24 15.95C22.3667 15.95 21.0667 16.4667 20.1 17.5C19.1333 18.5333 18.65 19.9833 18.65 21.85V37H10.1V-4.76837e-07H18.65V12.85C19.5167 11.6167 20.7 10.6333 22.2 9.9C23.7 9.16667 25.3833 8.8 27.25 8.8ZM70.0914 22.6C70.0914 23.4 70.0414 24.2333 69.9414 25.1H50.5914C50.7247 26.8333 51.2747 28.1667 52.2414 29.1C53.2414 30 54.4581 30.45 55.8914 30.45C58.0247 30.45 59.5081 29.55 60.3414 27.75H69.4414C68.9747 29.5833 68.1247 31.2333 66.8914 32.7C65.6914 34.1667 64.1747 35.3167 62.3414 36.15C60.5081 36.9833 58.4581 37.4 56.1914 37.4C53.4581 37.4 51.0247 36.8167 48.8914 35.65C46.7581 34.4833 45.0914 32.8167 43.8914 30.65C42.6914 28.4833 42.0914 25.95 42.0914 23.05C42.0914 20.15 42.6747 17.6167 43.8414 15.45C45.0414 13.2833 46.7081 11.6167 48.8414 10.45C50.9747 9.28333 53.4247 8.7 56.1914 8.7C58.8914 8.7 61.2914 9.26667 63.3914 10.4C65.4914 11.5333 67.1247 13.15 68.2914 15.25C69.4914 17.35 70.0914 19.8 70.0914 22.6ZM61.3414 20.35C61.3414 18.8833 60.8414 17.7167 59.8414 16.85C58.8414 15.9833 57.5914 15.55 56.0914 15.55C54.6581 15.55 53.4414 15.9667 52.4414 16.8C51.4747 17.6333 50.8747 18.8167 50.6414 20.35H61.3414ZM72.902 23C72.902 20.1333 73.4353 17.6167 74.502 15.45C75.602 13.2833 77.0853 11.6167 78.952 10.45C80.8186 9.28333 82.902 8.7 85.202 8.7C87.1686 8.7 88.8853 9.1 90.352 9.9C91.852 10.7 93.002 11.75 93.802 13.05V9.1H102.352V37H93.802V33.05C92.9686 34.35 91.802 35.4 90.302 36.2C88.8353 37 87.1186 37.4 85.152 37.4C82.8853 37.4 80.8186 36.8167 78.952 35.65C77.0853 34.45 75.602 32.7667 74.502 30.6C73.4353 28.4 72.902 25.8667 72.902 23ZM93.802 23.05C93.802 20.9167 93.202 19.2333 92.002 18C90.8353 16.7667 89.402 16.15 87.702 16.15C86.002 16.15 84.552 16.7667 83.352 18C82.1853 19.2 81.602 20.8667 81.602 23C81.602 25.1333 82.1853 26.8333 83.352 28.1C84.552 29.3333 86.002 29.95 87.702 29.95C89.402 29.95 90.8353 29.3333 92.002 28.1C93.202 26.8667 93.802 25.1833 93.802 23.05ZM117.088 13.75C118.088 12.2167 119.338 11.0167 120.838 10.15C122.338 9.25 124.004 8.8 125.838 8.8V17.85H123.488C121.354 17.85 119.754 18.3167 118.688 19.25C117.621 20.15 117.088 21.75 117.088 24.05V37H108.538V9.1H117.088V13.75ZM142.624 37.4C139.891 37.4 137.424 36.8167 135.224 35.65C133.058 34.4833 131.341 32.8167 130.074 30.65C128.841 28.4833 128.224 25.95 128.224 23.05C128.224 20.1833 128.858 17.6667 130.124 15.5C131.391 13.3 133.124 11.6167 135.324 10.45C137.524 9.28333 139.991 8.7 142.724 8.7C145.458 8.7 147.924 9.28333 150.124 10.45C152.324 11.6167 154.058 13.3 155.324 15.5C156.591 17.6667 157.224 20.1833 157.224 23.05C157.224 25.9167 156.574 28.45 155.274 30.65C154.008 32.8167 152.258 34.4833 150.024 35.65C147.824 36.8167 145.358 37.4 142.624 37.4ZM142.624 30C144.258 30 145.641 29.4 146.774 28.2C147.941 27 148.524 25.2833 148.524 23.05C148.524 20.8167 147.958 19.1 146.824 17.9C145.724 16.7 144.358 16.1 142.724 16.1C141.058 16.1 139.674 16.7 138.574 17.9C137.474 19.0667 136.924 20.7833 136.924 23.05C136.924 25.2833 137.458 27 138.524 28.2C139.624 29.4 140.991 30 142.624 30Z" fill="white"/>
<path d="M34.95 12L34.209 12.6715L34.2143 12.6773L34.95 12ZM37.85 37V38H38.85V37H37.85ZM29.35 37H28.35V38H29.35V37ZM27.9 17.5L27.1697 18.1832L27.9 17.5ZM20.1 17.5L20.8303 18.1832L20.1 17.5ZM18.65 37V38H19.65V37H18.65ZM10.1 37H9.1V38H10.1V37ZM10.1 0V-1H9.1V0H10.1ZM18.65 0H19.65V-1H18.65V0ZM18.65 12.85H17.65V16.0124L19.4682 13.4249L18.65 12.85ZM22.2 9.9L21.7608 9.00161L21.7608 9.00161L22.2 9.9ZM27.25 9.8C30.2027 9.8 32.4876 10.772 34.209 12.6715L35.691 11.3285C33.5458 8.96136 30.6973 7.8 27.25 7.8V9.8ZM34.2143 12.6773C35.9321 14.5432 36.85 17.1743 36.85 20.7H38.85C38.85 16.8257 37.8346 13.6568 35.6857 11.3227L34.2143 12.6773ZM36.85 20.7V37H38.85V20.7H36.85ZM37.85 36H29.35V38H37.85V36ZM30.35 37V21.85H28.35V37H30.35ZM30.35 21.85C30.35 19.8128 29.8197 18.0883 28.6303 16.8168L27.1697 18.1832C27.9136 18.9783 28.35 20.1539 28.35 21.85H30.35ZM28.6303 16.8168C27.4448 15.5496 25.8634 14.95 24 14.95V16.95C25.4033 16.95 26.4219 17.3837 27.1697 18.1832L28.6303 16.8168ZM24 14.95C22.1366 14.95 20.5552 15.5496 19.3697 16.8168L20.8303 18.1832C21.5781 17.3837 22.5967 16.95 24 16.95V14.95ZM19.3697 16.8168C18.1803 18.0883 17.65 19.8128 17.65 21.85H19.65C19.65 20.1539 20.0864 18.9783 20.8303 18.1832L19.3697 16.8168ZM17.65 21.85V37H19.65V21.85H17.65ZM18.65 36H10.1V38H18.65V36ZM11.1 37V0H9.1V37H11.1ZM10.1 1H18.65V-1H10.1V1ZM17.65 0V12.85H19.65V0H17.65ZM19.4682 13.4249C20.2277 12.3441 21.2741 11.4657 22.6392 10.7984L21.7608 9.00161C20.1259 9.80091 18.8056 10.8892 17.8318 12.2751L19.4682 13.4249ZM22.6392 10.7984C23.987 10.1394 25.5174 9.8 27.25 9.8V7.8C25.2492 7.8 23.413 8.19389 21.7608 9.00161L22.6392 10.7984ZM69.9414 25.1V26.1H70.8327L70.9348 25.2146L69.9414 25.1ZM50.5914 25.1V24.1H49.5115L49.5944 25.1767L50.5914 25.1ZM52.2414 29.1L51.5468 29.8194L51.5594 29.8316L51.5724 29.8433L52.2414 29.1ZM60.3414 27.75V26.75H59.7024L59.4339 27.3299L60.3414 27.75ZM69.4414 27.75L70.4105 27.9967L70.7278 26.75H69.4414V27.75ZM66.8914 32.7L66.126 32.0563L66.1175 32.0668L66.8914 32.7ZM62.3414 36.15L62.7552 37.0604L62.3414 36.15ZM48.8914 35.65L48.4116 36.5274L48.8914 35.65ZM43.8914 30.65L44.7662 30.1655L43.8914 30.65ZM43.8414 15.45L42.9666 14.9655L42.9609 14.9759L43.8414 15.45ZM48.8414 10.45L49.3212 11.3274L48.8414 10.45ZM63.3914 10.4L62.9165 11.28L63.3914 10.4ZM68.2914 15.25L67.4172 15.7357L67.4232 15.7461L68.2914 15.25ZM61.3414 20.35V21.35H62.3414V20.35H61.3414ZM59.8414 16.85L60.4963 16.0943L59.8414 16.85ZM52.4414 16.8L51.8012 16.0318L51.7948 16.0371L51.7885 16.0426L52.4414 16.8ZM50.6414 20.35L49.6528 20.1996L49.4777 21.35H50.6414V20.35ZM69.0914 22.6C69.0914 23.3584 69.044 24.1534 68.948 24.9854L70.9348 25.2146C71.0388 24.3133 71.0914 23.4416 71.0914 22.6H69.0914ZM69.9414 24.1H50.5914V26.1H69.9414V24.1ZM49.5944 25.1767C49.7408 27.0805 50.3574 28.671 51.5468 29.8194L52.936 28.3806C52.1921 27.6623 51.7087 26.5861 51.5885 25.0233L49.5944 25.1767ZM51.5724 29.8433C52.7688 30.92 54.2287 31.45 55.8914 31.45V29.45C54.6875 29.45 53.7141 29.08 52.9104 28.3567L51.5724 29.8433ZM55.8914 31.45C57.0991 31.45 58.1923 31.1944 59.1226 30.6299C60.0577 30.0626 60.761 29.2238 61.2489 28.1701L59.4339 27.3299C59.0884 28.0762 58.6335 28.5874 58.0852 28.9201C57.5322 29.2556 56.8171 29.45 55.8914 29.45V31.45ZM60.3414 28.75H69.4414V26.75H60.3414V28.75ZM68.4723 27.5033C68.0433 29.1887 67.2637 30.7035 66.126 32.0564L67.6568 33.3436C68.9857 31.7632 69.9062 29.9779 70.4105 27.9967L68.4723 27.5033ZM66.1175 32.0668C65.0207 33.4072 63.6302 34.4657 61.9276 35.2396L62.7552 37.0604C64.7193 36.1676 66.3621 34.9261 67.6654 33.3332L66.1175 32.0668ZM61.9276 35.2396C60.2396 36.0069 58.3333 36.4 56.1914 36.4V38.4C58.5829 38.4 60.7765 37.9598 62.7552 37.0604L61.9276 35.2396ZM56.1914 36.4C53.6046 36.4 51.3399 35.8493 49.3712 34.7726L48.4116 36.5274C50.7096 37.7841 53.3115 38.4 56.1914 38.4V36.4ZM49.3712 34.7726C47.4073 33.6986 45.8762 32.1697 44.7662 30.1655L43.0166 31.1345C44.3066 33.4636 46.1088 35.268 48.4116 36.5274L49.3712 34.7726ZM44.7662 30.1655C43.6614 28.1706 43.0914 25.8096 43.0914 23.05H41.0914C41.0914 26.0904 41.7215 28.796 43.0166 31.1345L44.7662 30.1655ZM43.0914 23.05C43.0914 20.2859 43.6466 17.9211 44.7219 15.9241L42.9609 14.9759C41.7029 17.3123 41.0914 20.0141 41.0914 23.05H43.0914ZM44.7162 15.9345C45.8262 13.9303 47.3573 12.4014 49.3212 11.3274L48.3616 9.57263C46.0588 10.832 44.2566 12.6364 42.9666 14.9655L44.7162 15.9345ZM49.3212 11.3274C51.2882 10.2517 53.569 9.7 56.1914 9.7V7.7C53.2805 7.7 50.6613 8.31497 48.3616 9.57263L49.3212 11.3274ZM56.1914 9.7C58.7477 9.7 60.9807 10.2353 62.9165 11.28L63.8663 9.51998C61.6022 8.29803 59.0351 7.7 56.1914 7.7V9.7ZM62.9165 11.28C64.8473 12.3221 66.3426 13.8013 67.4173 15.7356L69.1656 14.7644C67.9069 12.4987 66.1355 10.7446 63.8663 9.51998L62.9165 11.28ZM67.4232 15.7461C68.524 17.6726 69.0914 19.9463 69.0914 22.6H71.0914C71.0914 19.6537 70.4588 17.0273 69.1597 14.7539L67.4232 15.7461ZM62.3414 20.35C62.3414 18.6286 61.7408 17.1729 60.4963 16.0943L59.1865 17.6057C59.942 18.2605 60.3414 19.1381 60.3414 20.35H62.3414ZM60.4963 16.0943C59.2902 15.049 57.7977 14.55 56.0914 14.55V16.55C57.3851 16.55 58.3926 16.9177 59.1865 17.6057L60.4963 16.0943ZM56.0914 14.55C54.4494 14.55 52.9995 15.0332 51.8012 16.0318L53.0816 17.5682C53.8834 16.9001 54.8667 16.55 56.0914 16.55V14.55ZM51.7885 16.0426C50.6043 17.0634 49.914 18.4832 49.6528 20.1996L51.63 20.5004C51.8355 19.1501 52.3452 18.2032 53.0943 17.5574L51.7885 16.0426ZM50.6414 21.35H61.3414V19.35H50.6414V21.35ZM74.502 15.45L73.6102 14.9973L73.6048 15.0083L74.502 15.45ZM78.952 10.45L79.4819 11.298L78.952 10.45ZM90.352 9.9L89.8731 10.7779L89.8814 10.7824L90.352 9.9ZM93.802 13.05L92.9503 13.5741L94.802 16.583V13.05H93.802ZM93.802 9.1V8.1H92.802V9.1H93.802ZM102.352 9.1H103.352V8.1H102.352V9.1ZM102.352 37V38H103.352V37H102.352ZM93.802 37H92.802V38H93.802V37ZM93.802 33.05H94.802V29.637L92.9601 32.5103L93.802 33.05ZM90.302 36.2L89.8313 35.3176L89.8231 35.3221L90.302 36.2ZM78.952 35.65L78.4111 36.4912L78.422 36.498L78.952 35.65ZM74.502 30.6L73.6021 31.0363L73.6061 31.0445L73.6103 31.0527L74.502 30.6ZM92.002 18L91.2754 18.6873L91.2852 18.6974L92.002 18ZM83.352 18L82.6352 17.3026L82.635 17.3029L83.352 18ZM83.352 28.1L82.6164 28.7775L82.6257 28.7875L82.6352 28.7974L83.352 28.1ZM92.002 28.1L91.2852 27.4026L91.2755 27.4128L92.002 28.1ZM73.902 23C73.902 20.2581 74.4116 17.8975 75.3991 15.8917L73.6048 15.0083C72.4589 17.3358 71.902 20.0086 71.902 23H73.902ZM75.3936 15.9027C76.4201 13.8809 77.7853 12.3584 79.4819 11.298L78.422 9.602C76.3853 10.8749 74.7838 12.6858 73.6103 14.9973L75.3936 15.9027ZM79.4819 11.298C81.1824 10.2352 83.0806 9.7 85.202 9.7V7.7C82.7234 7.7 80.4549 8.33143 78.422 9.602L79.4819 11.298ZM85.202 9.7C87.031 9.7 88.5774 10.0711 89.8731 10.7779L90.8308 9.0221C89.1932 8.12887 87.3062 7.7 85.202 7.7V9.7ZM89.8814 10.7824C91.243 11.5086 92.2536 12.4419 92.9503 13.5741L94.6536 12.5259C93.7504 11.0581 92.4609 9.89141 90.8225 9.01764L89.8814 10.7824ZM94.802 13.05V9.1H92.802V13.05H94.802ZM93.802 10.1H102.352V8.1H93.802V10.1ZM101.352 9.1V37H103.352V9.1H101.352ZM102.352 36H93.802V38H102.352V36ZM94.802 37V33.05H92.802V37H94.802ZM92.9601 32.5103C92.2282 33.652 91.1959 34.5899 89.8314 35.3176L90.7725 37.0824C92.408 36.2101 93.709 35.048 94.6438 33.5897L92.9601 32.5103ZM89.8231 35.3221C88.5274 36.0289 86.981 36.4 85.152 36.4V38.4C87.2562 38.4 89.1432 37.9711 90.7808 37.0779L89.8231 35.3221ZM85.152 36.4C83.0668 36.4 81.1848 35.8663 79.4819 34.802L78.422 36.498C80.4525 37.7671 82.7037 38.4 85.152 38.4V36.4ZM79.4927 34.8088C77.7894 33.7138 76.4211 32.1711 75.3936 30.1473L73.6103 31.0527C74.7828 33.3622 76.3812 35.1862 78.4112 36.4912L79.4927 34.8088ZM75.4018 30.1637C74.4115 28.1213 73.902 25.7415 73.902 23H71.902C71.902 25.9919 72.4591 28.6787 73.6021 31.0363L75.4018 30.1637ZM94.802 23.05C94.802 20.7221 94.1416 18.7651 92.7187 17.3026L91.2852 18.6974C92.2623 19.7016 92.802 21.1113 92.802 23.05H94.802ZM92.7284 17.3128C91.3726 15.8795 89.6764 15.15 87.702 15.15V17.15C89.1275 17.15 90.298 17.6538 91.2755 18.6872L92.7284 17.3128ZM87.702 15.15C85.7283 15.15 84.0209 15.8785 82.6352 17.3026L84.0687 18.6974C85.083 17.6548 86.2756 17.15 87.702 17.15V15.15ZM82.635 17.3029C81.2407 18.7371 80.602 20.681 80.602 23H82.602C82.602 21.0523 83.1299 19.6629 84.0689 18.6971L82.635 17.3029ZM80.602 23C80.602 25.3216 81.2415 27.2847 82.6164 28.7775L84.0875 27.4225C83.1291 26.382 82.602 24.945 82.602 23H80.602ZM82.6352 28.7974C84.0209 30.2215 85.7283 30.95 87.702 30.95V28.95C86.2756 28.95 85.083 28.4452 84.0687 27.4026L82.6352 28.7974ZM87.702 30.95C89.6764 30.95 91.3726 30.2205 92.7284 28.7872L91.2755 27.4128C90.298 28.4462 89.1275 28.95 87.702 28.95V30.95ZM92.7187 28.7974C94.1416 27.3349 94.802 25.3779 94.802 23.05H92.802C92.802 24.9887 92.2623 26.3984 91.2852 27.4026L92.7187 28.7974ZM117.088 13.75H116.088V17.1139L117.925 14.2963L117.088 13.75ZM120.838 10.15L121.338 11.0159L121.345 11.0117L121.352 11.0075L120.838 10.15ZM125.838 8.8H126.838V7.8H125.838V8.8ZM125.838 17.85V18.85H126.838V17.85H125.838ZM118.688 19.25L119.332 20.0143L119.339 20.0085L119.346 20.0026L118.688 19.25ZM117.088 37V38H118.088V37H117.088ZM108.537 37H107.537V38H108.537V37ZM108.537 9.1V8.1H107.537V9.1H108.537ZM117.088 9.1H118.088V8.1H117.088V9.1ZM117.925 14.2963C118.844 12.8868 119.981 11.7995 121.338 11.0159L120.337 9.28413C118.694 10.2338 117.331 11.5465 116.25 13.2037L117.925 14.2963ZM121.352 11.0075C122.689 10.2053 124.176 9.8 125.838 9.8V7.8C123.832 7.8 121.986 8.29469 120.323 9.29251L121.352 11.0075ZM124.838 8.8V17.85H126.838V8.8H124.838ZM125.838 16.85H123.488V18.85H125.838V16.85ZM123.488 16.85C121.23 16.85 119.351 17.3409 118.029 18.4974L119.346 20.0026C120.158 19.2925 121.478 18.85 123.488 18.85V16.85ZM118.043 18.4857C116.639 19.6698 116.088 21.6417 116.088 24.05H118.088C118.088 21.8583 118.602 20.6302 119.332 20.0143L118.043 18.4857ZM116.088 24.05V37H118.088V24.05H116.088ZM117.088 36H108.537V38H117.088V36ZM109.537 37V9.1H107.537V37H109.537ZM108.537 10.1H117.088V8.1H108.537V10.1ZM116.088 9.1V13.75H118.088V9.1H116.088ZM135.224 35.65L134.75 36.5305L134.756 36.5335L135.224 35.65ZM130.074 30.65L129.205 31.1447L129.211 31.1547L130.074 30.65ZM130.124 15.5L130.988 16.0047L130.991 15.999L130.124 15.5ZM135.324 10.45L135.793 11.3335L135.324 10.45ZM150.124 10.45L149.656 11.3335L150.124 10.45ZM155.324 15.5L154.458 15.999L154.461 16.0047L155.324 15.5ZM155.274 30.65L154.413 30.1413L154.411 30.1453L155.274 30.65ZM150.024 35.65L149.561 34.7636L149.556 34.7665L150.024 35.65ZM146.774 28.2L146.057 27.5029L146.052 27.5081L146.047 27.5134L146.774 28.2ZM146.824 17.9L146.087 18.5757L146.092 18.5812L146.097 18.5866L146.824 17.9ZM138.574 17.9L139.302 18.5861L139.311 18.5757L138.574 17.9ZM138.524 28.2L137.777 28.8644L137.782 28.8701L137.787 28.8757L138.524 28.2ZM142.624 36.4C140.038 36.4 137.735 35.8494 135.693 34.7665L134.756 36.5335C137.114 37.7839 139.744 38.4 142.624 38.4V36.4ZM135.698 34.7695C133.697 33.6918 132.113 32.1567 130.938 30.1453L129.211 31.1547C130.568 33.4767 132.418 35.2749 134.75 36.5305L135.698 34.7695ZM130.943 30.1553C129.809 28.1624 129.224 25.8051 129.224 23.05H127.224C127.224 26.0949 127.873 28.8042 129.205 31.1447L130.943 30.1553ZM129.224 23.05C129.224 20.3351 129.822 17.9975 130.988 16.0047L129.261 14.9953C127.893 17.3358 127.224 20.0316 127.224 23.05H129.224ZM130.991 15.999C132.166 13.9587 133.762 12.4102 135.793 11.3335L134.856 9.56654C132.486 10.8232 130.616 12.6413 129.258 15.001L130.991 15.999ZM135.793 11.3335C137.835 10.2506 140.138 9.7 142.724 9.7V7.7C139.844 7.7 137.214 8.31606 134.856 9.56654L135.793 11.3335ZM142.724 9.7C145.31 9.7 147.614 10.2506 149.656 11.3335L150.593 9.56654C148.235 8.31606 145.605 7.7 142.724 7.7V9.7ZM149.656 11.3335C151.686 12.4102 153.283 13.9587 154.458 15.999L156.191 15.001C154.832 12.6413 152.962 10.8232 150.593 9.56654L149.656 11.3335ZM154.461 16.0047C155.626 17.9975 156.224 20.3351 156.224 23.05H158.224C158.224 20.0316 157.556 17.3358 156.188 14.9953L154.461 16.0047ZM156.224 23.05C156.224 25.76 155.612 28.1135 154.413 30.1413L156.135 31.1587C157.537 28.7865 158.224 26.0733 158.224 23.05H156.224ZM154.411 30.1453C153.24 32.149 151.629 33.6837 149.561 34.7637L150.487 36.5364C152.887 35.283 154.776 33.4844 156.138 31.1547L154.411 30.1453ZM149.556 34.7665C147.514 35.8494 145.21 36.4 142.624 36.4V38.4C145.505 38.4 148.135 37.7839 150.493 36.5335L149.556 34.7665ZM142.624 31C144.536 31 146.181 30.2842 147.501 28.8866L146.047 27.5134C145.101 28.5158 143.979 29 142.624 29V31ZM147.491 28.8971C148.893 27.4548 149.524 25.4541 149.524 23.05H147.524C147.524 25.1125 146.988 26.5452 146.057 27.5029L147.491 28.8971ZM149.524 23.05C149.524 20.6532 148.914 18.6565 147.551 17.2134L146.097 18.5866C147.001 19.5435 147.524 20.9802 147.524 23.05H149.524ZM147.561 17.2243C146.271 15.8169 144.637 15.1 142.724 15.1V17.1C144.078 17.1 145.177 17.5831 146.087 18.5757L147.561 17.2243ZM142.724 15.1C140.785 15.1 139.132 15.8121 137.837 17.2243L139.311 18.5757C140.217 17.5879 141.33 17.1 142.724 17.1V15.1ZM137.847 17.214C136.511 18.631 135.924 20.634 135.924 23.05H137.924C137.924 20.9326 138.438 19.5023 139.302 18.586L137.847 17.214ZM135.924 23.05C135.924 25.4325 136.493 27.4206 137.777 28.8644L139.272 27.5356C138.422 26.5794 137.924 25.1342 137.924 23.05H135.924ZM137.787 28.8757C139.077 30.2831 140.712 31 142.624 31V29C141.27 29 140.171 28.5169 139.261 27.5243L137.787 28.8757Z" fill="#1F3566"/>
</g>
<defs>
<filter id="filter0_d_21_24" x="0.0999756" y="0" width="167.124" height="57.4" filterUnits="userSpaceOnUse" color-interpolation-filters="sRGB">
<feFlood flood-opacity="0" result="BackgroundImageFix"/>
<feColorMatrix in="SourceAlpha" type="matrix" values="0 0 0 0 0 0 0 0 0 0 0 0 0 0 0 0 0 0 127 0" result="hardAlpha"/>
<feOffset dy="10"/>
<feGaussianBlur stdDeviation="5"/>
<feComposite in2="hardAlpha" operator="out"/>
<feColorMatrix type="matrix" values="0 0 0 0 0 0 0 0 0 0 0 0 0 0 0 0 0 0 0.25 0"/>
<feBlend mode="normal" in2="BackgroundImageFix" result="effect1_dropShadow_21_24"/>
<feBlend mode="normal" in="SourceGraphic" in2="effect1_dropShadow_21_24" result="shape"/>
</filter>
</defs>
</svg>
