<svg width="347" height="120" viewBox="0 0 347 120" fill="none" xmlns="http://www.w3.org/2000/svg">
<g filter="url(#filter0_d_77_12)">
<path d="M85.4001 42.88C90.5201 42.88 94.6267 44.5867 97.7201 48C100.813 51.36 102.36 56 102.36 61.92V88H88.7601V63.76C88.7601 60.7733 87.9867 58.4533 86.4401 56.8C84.8934 55.1467 82.8134 54.32 80.2001 54.32C77.5867 54.32 75.5067 55.1467 73.9601 56.8C72.4134 58.4533 71.6401 60.7733 71.6401 63.76V88H57.9601V28.8H71.6401V49.36C73.0267 47.3867 74.9201 45.8133 77.3201 44.64C79.7201 43.4667 82.4134 42.88 85.4001 42.88ZM153.946 64.96C153.946 66.24 153.866 67.5733 153.706 68.96H122.746C122.96 71.7333 123.84 73.8667 125.386 75.36C126.986 76.8 128.933 77.52 131.226 77.52C134.64 77.52 137.013 76.08 138.346 73.2H152.906C152.16 76.1333 150.8 78.7733 148.826 81.12C146.906 83.4667 144.48 85.3067 141.546 86.64C138.613 87.9733 135.333 88.64 131.706 88.64C127.333 88.64 123.44 87.7067 120.026 85.84C116.613 83.9733 113.946 81.3067 112.026 77.84C110.106 74.3733 109.146 70.32 109.146 65.68C109.146 61.04 110.08 56.9867 111.946 53.52C113.866 50.0533 116.533 47.3867 119.946 45.52C123.36 43.6533 127.28 42.72 131.706 42.72C136.026 42.72 139.866 43.6267 143.226 45.44C146.586 47.2533 149.2 49.84 151.066 53.2C152.986 56.56 153.946 60.48 153.946 64.96ZM139.946 61.36C139.946 59.0133 139.146 57.1467 137.546 55.76C135.946 54.3733 133.946 53.68 131.546 53.68C129.253 53.68 127.306 54.3467 125.706 55.68C124.16 57.0133 123.2 58.9067 122.826 61.36H139.946ZM158.443 65.6C158.443 61.0133 159.297 56.9867 161.003 53.52C162.763 50.0533 165.137 47.3867 168.123 45.52C171.11 43.6533 174.443 42.72 178.123 42.72C181.27 42.72 184.017 43.36 186.363 44.64C188.763 45.92 190.603 47.6 191.883 49.68V43.36H205.563V88H191.883V81.68C190.55 83.76 188.683 85.44 186.283 86.72C183.937 88 181.19 88.64 178.043 88.64C174.417 88.64 171.11 87.7067 168.123 85.84C165.137 83.92 162.763 81.2267 161.003 77.76C159.297 74.24 158.443 70.1867 158.443 65.6ZM191.883 65.68C191.883 62.2667 190.923 59.5733 189.003 57.6C187.137 55.6267 184.843 54.64 182.123 54.64C179.403 54.64 177.083 55.6267 175.163 57.6C173.297 59.52 172.363 62.1867 172.363 65.6C172.363 69.0133 173.297 71.7333 175.163 73.76C177.083 75.7333 179.403 76.72 182.123 76.72C184.843 76.72 187.137 75.7333 189.003 73.76C190.923 71.7867 191.883 69.0933 191.883 65.68ZM229.14 50.8C230.74 48.3467 232.74 46.4267 235.14 45.04C237.54 43.6 240.207 42.88 243.14 42.88V57.36H239.38C235.967 57.36 233.407 58.1067 231.7 59.6C229.993 61.04 229.14 63.6 229.14 67.28V88H215.46V43.36H229.14V50.8ZM269.999 88.64C265.625 88.64 261.679 87.7067 258.159 85.84C254.692 83.9733 251.945 81.3067 249.919 77.84C247.945 74.3733 246.959 70.32 246.959 65.68C246.959 61.0933 247.972 57.0667 249.999 53.6C252.025 50.08 254.799 47.3867 258.319 45.52C261.839 43.6533 265.785 42.72 270.159 42.72C274.532 42.72 278.479 43.6533 281.999 45.52C285.519 47.3867 288.292 50.08 290.319 53.6C292.345 57.0667 293.359 61.0933 293.359 65.68C293.359 70.2667 292.319 74.32 290.239 77.84C288.212 81.3067 285.412 83.9733 281.839 85.84C278.319 87.7067 274.372 88.64 269.999 88.64ZM269.999 76.8C272.612 76.8 274.825 75.84 276.639 73.92C278.505 72 279.439 69.2533 279.439 65.68C279.439 62.1067 278.532 59.36 276.719 57.44C274.959 55.52 272.772 54.56 270.159 54.56C267.492 54.56 265.279 55.52 263.519 57.44C261.759 59.3067 260.879 62.0533 260.879 65.68C260.879 69.2533 261.732 72 263.439 73.92C265.199 75.84 267.385 76.8 269.999 76.8Z" fill="white"/>
<path d="M97.7201 48L96.9791 48.6715L96.9844 48.6773L97.7201 48ZM102.36 88V89H103.36V88H102.36ZM88.7601 88H87.7601V89H88.7601V88ZM86.4401 56.8L85.7098 57.4832L85.7098 57.4832L86.4401 56.8ZM73.9601 56.8L74.6903 57.4832L74.6903 57.4832L73.9601 56.8ZM71.6401 88V89H72.6401V88H71.6401ZM57.9601 88H56.9601V89H57.9601V88ZM57.9601 28.8V27.8H56.9601V28.8H57.9601ZM71.6401 28.8H72.6401V27.8H71.6401V28.8ZM71.6401 49.36H70.6401V52.5224L72.4583 49.9349L71.6401 49.36ZM77.3201 44.64L76.8809 43.7416L76.8809 43.7416L77.3201 44.64ZM85.4001 43.88C90.2728 43.88 94.0976 45.492 96.9791 48.6715L98.461 47.3285C95.1558 43.6814 90.7673 41.88 85.4001 41.88V43.88ZM96.9844 48.6773C99.8621 51.8032 101.36 56.1743 101.36 61.92H103.36C103.36 55.8257 101.765 50.9168 98.4558 47.3227L96.9844 48.6773ZM101.36 61.92V88H103.36V61.92H101.36ZM102.36 87H88.7601V89H102.36V87ZM89.7601 88V63.76H87.7601V88H89.7601ZM89.7601 63.76C89.7601 60.6028 88.9398 58.0083 87.1703 56.1168L85.7098 57.4832C87.0337 58.8983 87.7601 60.9439 87.7601 63.76H89.7601ZM87.1703 56.1168C85.4048 54.2296 83.0434 53.32 80.2001 53.32V55.32C82.5834 55.32 84.3819 56.0637 85.7098 57.4832L87.1703 56.1168ZM80.2001 53.32C77.3567 53.32 74.9953 54.2296 73.2298 56.1168L74.6903 57.4832C76.0182 56.0637 77.8168 55.32 80.2001 55.32V53.32ZM73.2298 56.1168C71.4603 58.0083 70.6401 60.6028 70.6401 63.76H72.6401C72.6401 60.9439 73.3665 58.8983 74.6903 57.4832L73.2298 56.1168ZM70.6401 63.76V88H72.6401V63.76H70.6401ZM71.6401 87H57.9601V89H71.6401V87ZM58.9601 88V28.8H56.9601V88H58.9601ZM57.9601 29.8H71.6401V27.8H57.9601V29.8ZM70.6401 28.8V49.36H72.6401V28.8H70.6401ZM72.4583 49.9349C73.7378 48.1141 75.4942 46.6457 77.7593 45.5384L76.8809 43.7416C74.3459 44.9809 72.3157 46.6592 70.8219 48.7851L72.4583 49.9349ZM77.7593 45.5384C80.0071 44.4394 82.5475 43.88 85.4001 43.88V41.88C82.2793 41.88 79.433 42.4939 76.8809 43.7416L77.7593 45.5384ZM153.706 68.96V69.96H154.598L154.7 69.0746L153.706 68.96ZM122.746 68.96V67.96H121.666L121.749 69.0367L122.746 68.96ZM125.386 75.36L124.692 76.0794L124.704 76.0916L124.717 76.1033L125.386 75.36ZM138.346 73.2V72.2H137.707L137.439 72.7799L138.346 73.2ZM152.906 73.2L153.875 73.4467L154.193 72.2H152.906V73.2ZM148.826 81.12L148.061 80.4763L148.052 80.4868L148.826 81.12ZM141.546 86.64L141.96 87.5504L141.546 86.64ZM120.026 85.84L119.546 86.7174L119.546 86.7174L120.026 85.84ZM112.026 77.84L112.901 77.3555L112.901 77.3555L112.026 77.84ZM111.946 53.52L111.071 53.0355L111.066 53.0459L111.946 53.52ZM119.946 45.52L120.426 46.3974L120.426 46.3974L119.946 45.52ZM143.226 45.44L142.751 46.32L142.751 46.32L143.226 45.44ZM151.066 53.2L150.192 53.6857L150.198 53.6961L151.066 53.2ZM139.946 61.36V62.36H140.946V61.36H139.946ZM137.546 55.76L138.201 55.0043L138.201 55.0043L137.546 55.76ZM125.706 55.68L125.066 54.9118L125.06 54.9171L125.053 54.9226L125.706 55.68ZM122.826 61.36L121.838 61.2096L121.663 62.36H122.826V61.36ZM152.946 64.96C152.946 66.1984 152.869 67.4934 152.713 68.8454L154.7 69.0746C154.864 67.6533 154.946 66.2816 154.946 64.96H152.946ZM153.706 67.96H122.746V69.96H153.706V67.96ZM121.749 69.0367C121.976 71.9805 122.922 74.371 124.692 76.0794L126.081 74.6406C124.757 73.3623 123.944 71.4861 123.743 68.8833L121.749 69.0367ZM124.717 76.1033C126.514 77.72 128.704 78.52 131.226 78.52V76.52C129.162 76.52 127.459 75.88 126.055 74.6167L124.717 76.1033ZM131.226 78.52C133.074 78.52 134.71 78.1294 136.085 77.2949C137.465 76.4576 138.516 75.2138 139.254 73.6201L137.439 72.7799C136.843 74.0662 136.041 74.9824 135.048 75.5851C134.05 76.1906 132.792 76.52 131.226 76.52V78.52ZM138.346 74.2H152.906V72.2H138.346V74.2ZM151.937 72.9533C151.228 75.7387 149.939 78.2435 148.061 80.4764L149.592 81.7636C151.661 79.3032 153.091 76.5279 153.875 73.4467L151.937 72.9533ZM148.052 80.4868C146.236 82.7072 143.935 84.4557 141.133 85.7296L141.96 87.5504C145.024 86.1576 147.577 84.2261 149.6 81.7532L148.052 80.4868ZM141.133 85.7296C138.345 86.9969 135.208 87.64 131.706 87.64V89.64C135.458 89.64 138.881 88.9498 141.96 87.5504L141.133 85.7296ZM131.706 87.64C127.48 87.64 123.755 86.7393 120.506 84.9626L119.546 86.7174C123.124 88.6741 127.186 89.64 131.706 89.64V87.64ZM120.506 84.9626C117.262 83.1886 114.731 80.6597 112.901 77.3555L111.152 78.3245C113.161 81.9536 115.964 84.758 119.546 86.7174L120.506 84.9626ZM112.901 77.3555C111.076 74.0606 110.146 70.1796 110.146 65.68H108.146C108.146 70.4604 109.136 74.686 111.152 78.3245L112.901 77.3555ZM110.146 65.68C110.146 61.1759 111.051 57.2911 112.827 53.9941L111.066 53.0459C109.108 56.6823 108.146 60.9041 108.146 65.68H110.146ZM112.821 54.0045C114.651 50.7003 117.182 48.1714 120.426 46.3974L119.466 44.6426C115.884 46.602 113.081 49.4064 111.072 53.0355L112.821 54.0045ZM120.426 46.3974C123.673 44.6217 127.424 43.72 131.706 43.72V41.72C127.135 41.72 123.046 42.685 119.466 44.6426L120.426 46.3974ZM131.706 43.72C135.883 43.72 139.556 44.5953 142.751 46.32L143.701 44.56C140.177 42.658 136.17 41.72 131.706 41.72V43.72ZM142.751 46.32C145.942 48.042 148.418 50.4913 150.192 53.6856L151.94 52.7144C149.982 49.1887 147.23 46.4646 143.701 44.56L142.751 46.32ZM150.198 53.6961C152.019 56.8827 152.946 60.6263 152.946 64.96H154.946C154.946 60.3337 153.954 56.2373 151.935 52.7039L150.198 53.6961ZM140.946 61.36C140.946 58.7586 140.046 56.6029 138.201 55.0043L136.891 56.5157C138.247 57.6905 138.946 59.2681 138.946 61.36H140.946ZM138.201 55.0043C136.395 53.439 134.153 52.68 131.546 52.68V54.68C133.74 54.68 135.498 55.3077 136.891 56.5157L138.201 55.0043ZM131.546 52.68C129.044 52.68 126.864 53.4132 125.066 54.9118L126.346 56.4482C127.748 55.2801 129.462 54.68 131.546 54.68V52.68ZM125.053 54.9226C123.289 56.4434 122.239 58.5732 121.838 61.2096L123.815 61.5104C124.16 59.2401 125.03 57.5832 126.359 56.4374L125.053 54.9226ZM122.826 62.36H139.946V60.36H122.826V62.36ZM161.003 53.52L160.111 53.0673L160.106 53.0783L161.003 53.52ZM168.123 45.52L168.653 46.368L168.653 46.368L168.123 45.52ZM186.363 44.64L185.884 45.5179L185.893 45.5223L186.363 44.64ZM191.883 49.68L191.032 50.2041L192.883 53.213V49.68H191.883ZM191.883 43.36V42.36H190.883V43.36H191.883ZM205.563 43.36H206.563V42.36H205.563V43.36ZM205.563 88V89H206.563V88H205.563ZM191.883 88H190.883V89H191.883V88ZM191.883 81.68H192.883V78.267L191.041 81.1403L191.883 81.68ZM186.283 86.72L185.813 85.8376L185.804 85.8421L186.283 86.72ZM168.123 85.84L167.582 86.6812L167.593 86.688L168.123 85.84ZM161.003 77.76L160.103 78.1963L160.107 78.2045L160.112 78.2127L161.003 77.76ZM189.003 57.6L188.277 58.2873L188.286 58.2974L189.003 57.6ZM175.163 57.6L174.446 56.9026L174.446 56.9029L175.163 57.6ZM175.163 73.76L174.428 74.4375L174.437 74.4475L174.446 74.4574L175.163 73.76ZM189.003 73.76L188.286 73.0626L188.277 73.0728L189.003 73.76ZM159.443 65.6C159.443 61.1381 160.273 57.2675 161.9 53.9617L160.106 53.0783C158.32 56.7058 157.443 60.8886 157.443 65.6H159.443ZM161.895 53.9727C163.581 50.6509 165.836 48.1284 168.653 46.368L167.593 44.672C164.437 46.6449 161.945 49.4558 160.112 53.0673L161.895 53.9727ZM168.653 46.368C171.474 44.6052 174.622 43.72 178.123 43.72V41.72C174.265 41.72 170.746 42.7014 167.593 44.672L168.653 46.368ZM178.123 43.72C181.132 43.72 183.709 44.3311 185.884 45.5179L186.842 43.7621C184.324 42.3889 181.407 41.72 178.123 41.72V43.72ZM185.893 45.5223C188.154 46.7286 189.855 48.2919 191.032 50.2041L192.735 49.1559C191.352 46.9081 189.372 45.1114 186.834 43.7576L185.893 45.5223ZM192.883 49.68V43.36H190.883V49.68H192.883ZM191.883 44.36H205.563V42.36H191.883V44.36ZM204.563 43.36V88H206.563V43.36H204.563ZM205.563 87H191.883V89H205.563V87ZM192.883 88V81.68H190.883V88H192.883ZM191.041 81.1403C189.809 83.062 188.077 84.6299 185.813 85.8376L186.754 87.6024C189.289 86.2501 191.29 84.458 192.725 82.2197L191.041 81.1403ZM185.804 85.8421C183.629 87.0289 181.052 87.64 178.043 87.64V89.64C181.327 89.64 184.244 88.9711 186.762 87.5979L185.804 85.8421ZM178.043 87.64C174.598 87.64 171.476 86.7563 168.653 84.992L167.593 86.688C170.744 88.6571 174.235 89.64 178.043 89.64V87.64ZM168.664 84.9988C165.841 83.1838 163.582 80.6311 161.895 77.3073L160.112 78.2127C161.944 81.8222 164.432 84.6562 167.582 86.6812L168.664 84.9988ZM161.903 77.3237C160.273 73.9613 159.443 70.0615 159.443 65.6H157.443C157.443 70.3119 158.32 74.5187 160.103 78.1963L161.903 77.3237ZM192.883 65.68C192.883 62.0721 191.863 59.1051 189.72 56.9026L188.286 58.2974C189.984 60.0416 190.883 62.4613 190.883 65.68H192.883ZM189.73 56.9128C187.674 54.7395 185.118 53.64 182.123 53.64V55.64C184.569 55.64 186.599 56.5138 188.277 58.2872L189.73 56.9128ZM182.123 53.64C179.13 53.64 176.552 54.7385 174.446 56.9026L175.88 58.2974C177.614 56.5148 179.677 55.64 182.123 55.64V53.64ZM174.446 56.9029C172.352 59.0571 171.363 62.001 171.363 65.6H173.363C173.363 62.3723 174.241 59.9829 175.88 58.2971L174.446 56.9029ZM171.363 65.6C171.363 69.2016 172.353 72.1847 174.428 74.4375L175.899 73.0825C174.24 71.282 173.363 68.825 173.363 65.6H171.363ZM174.446 74.4574C176.552 76.6215 179.13 77.72 182.123 77.72V75.72C179.677 75.72 177.614 74.8452 175.88 73.0626L174.446 74.4574ZM182.123 77.72C185.118 77.72 187.674 76.6205 189.73 74.4472L188.277 73.0728C186.599 74.8462 184.569 75.72 182.123 75.72V77.72ZM189.72 74.4574C191.863 72.2549 192.883 69.2879 192.883 65.68H190.883C190.883 68.8987 189.984 71.3184 188.286 73.0626L189.72 74.4574ZM229.14 50.8H228.14V54.1639L229.978 51.3463L229.14 50.8ZM235.14 45.04L235.64 45.9059L235.647 45.9017L235.655 45.8975L235.14 45.04ZM243.14 42.88H244.14V41.88H243.14V42.88ZM243.14 57.36V58.36H244.14V57.36H243.14ZM231.7 59.6L232.345 60.3643L232.352 60.3585L232.359 60.3526L231.7 59.6ZM229.14 88V89H230.14V88H229.14ZM215.46 88H214.46V89H215.46V88ZM215.46 43.36V42.36H214.46V43.36H215.46ZM229.14 43.36H230.14V42.36H229.14V43.36ZM229.978 51.3463C231.497 49.0168 233.384 47.2095 235.64 45.9059L234.64 44.1741C232.096 45.6438 229.983 47.6765 228.302 50.2537L229.978 51.3463ZM235.655 45.8975C237.892 44.5553 240.379 43.88 243.14 43.88V41.88C240.035 41.88 237.189 42.6447 234.626 44.1825L235.655 45.8975ZM242.14 42.88V57.36H244.14V42.88H242.14ZM243.14 56.36H239.38V58.36H243.14V56.36ZM239.38 56.36C235.843 56.36 233.003 57.1309 231.042 58.8474L232.359 60.3526C233.81 59.0825 236.091 58.36 239.38 58.36V56.36ZM231.055 58.8357C229.012 60.5598 228.14 63.4917 228.14 67.28H230.14C230.14 63.7083 230.975 61.5202 232.345 60.3643L231.055 58.8357ZM228.14 67.28V88H230.14V67.28H228.14ZM229.14 87H215.46V89H229.14V87ZM216.46 88V43.36H214.46V88H216.46ZM215.46 44.36H229.14V42.36H215.46V44.36ZM228.14 43.36V50.8H230.14V43.36H228.14ZM258.159 85.84L257.685 86.7205L257.69 86.7235L258.159 85.84ZM249.919 77.84L249.05 78.3347L249.056 78.3447L249.919 77.84ZM249.999 53.6L250.862 54.1047L250.865 54.099L249.999 53.6ZM258.319 45.52L258.787 46.4035L258.787 46.4035L258.319 45.52ZM281.999 45.52L281.53 46.4035L281.53 46.4035L281.999 45.52ZM290.319 53.6L289.452 54.099L289.456 54.1047L290.319 53.6ZM290.239 77.84L289.378 77.3313L289.376 77.3353L290.239 77.84ZM281.839 85.84L281.376 84.9536L281.37 84.9565L281.839 85.84ZM276.639 73.92L275.922 73.2229L275.917 73.2281L275.912 73.2334L276.639 73.92ZM276.719 57.44L275.982 58.1157L275.987 58.1212L275.992 58.1266L276.719 57.44ZM263.519 57.44L264.246 58.1261L264.256 58.1157L263.519 57.44ZM263.439 73.92L262.691 74.5844L262.696 74.5901L262.702 74.5957L263.439 73.92ZM269.999 87.64C265.773 87.64 261.989 86.7394 258.627 84.9565L257.69 86.7235C261.368 88.6739 265.478 89.64 269.999 89.64V87.64ZM258.633 84.9595C255.331 83.1818 252.718 80.6467 250.782 77.3353L249.056 78.3447C251.173 81.9667 254.053 84.7649 257.685 86.7205L258.633 84.9595ZM250.788 77.3453C248.913 74.0524 247.959 70.1751 247.959 65.68H245.959C245.959 70.4649 246.977 74.6943 249.05 78.3347L250.788 77.3453ZM247.959 65.68C247.959 61.2451 248.937 57.3975 250.862 54.1047L249.136 53.0953C247.007 56.7358 245.959 60.9416 245.959 65.68H247.959ZM250.865 54.099C252.8 50.7387 255.437 48.1802 258.787 46.4035L257.85 44.6365C254.161 46.5932 251.251 49.4213 249.132 53.101L250.865 54.099ZM258.787 46.4035C262.149 44.6206 265.933 43.72 270.159 43.72V41.72C265.638 41.72 261.528 42.6861 257.85 44.6365L258.787 46.4035ZM270.159 43.72C274.385 43.72 278.168 44.6206 281.53 46.4035L282.467 44.6365C278.789 42.6861 274.679 41.72 270.159 41.72V43.72ZM281.53 46.4035C284.881 48.1802 287.517 50.7387 289.452 54.099L291.185 53.101C289.067 49.4213 286.157 46.5932 282.467 44.6365L281.53 46.4035ZM289.456 54.1047C291.381 57.3975 292.359 61.2451 292.359 65.68H294.359C294.359 60.9416 293.31 56.7358 291.182 53.0953L289.456 54.1047ZM292.359 65.68C292.359 70.11 291.356 73.9835 289.378 77.3313L291.1 78.3487C293.282 74.6565 294.359 70.4233 294.359 65.68H292.359ZM289.376 77.3353C287.444 80.639 284.783 83.1737 281.376 84.9537L282.302 86.7263C286.041 84.773 288.98 81.9744 291.102 78.3447L289.376 77.3353ZM281.37 84.9565C278.008 86.7394 274.225 87.64 269.999 87.64V89.64C274.519 89.64 278.629 88.6739 282.307 86.7235L281.37 84.9565ZM269.999 77.8C272.891 77.8 275.366 76.7242 277.366 74.6066L275.912 73.2334C274.285 74.9558 272.334 75.8 269.999 75.8V77.8ZM277.356 74.6171C279.458 72.4548 280.439 69.4241 280.439 65.68H278.439C278.439 69.0825 277.553 71.5452 275.922 73.2229L277.356 74.6171ZM280.439 65.68C280.439 61.9432 279.489 58.9165 277.446 56.7534L275.992 58.1266C277.576 59.8035 278.439 62.2702 278.439 65.68H280.439ZM277.456 56.7643C275.506 54.6369 273.051 53.56 270.159 53.56V55.56C272.493 55.56 274.412 56.4031 275.982 58.1157L277.456 56.7643ZM270.159 53.56C267.219 53.56 264.736 54.6321 262.782 56.7643L264.256 58.1157C265.821 56.4079 267.765 55.56 270.159 55.56V53.56ZM262.791 56.754C260.795 58.871 259.879 61.904 259.879 65.68H261.879C261.879 62.2026 262.722 59.7423 264.246 58.126L262.791 56.754ZM259.879 65.68C259.879 69.4025 260.768 72.4206 262.691 74.5844L264.186 73.2556C262.696 71.5794 261.879 69.1042 261.879 65.68H259.879ZM262.702 74.5957C264.652 76.7231 267.106 77.8 269.999 77.8V75.8C267.665 75.8 265.746 74.9569 264.176 73.2443L262.702 74.5957Z" fill="#1F3566"/>
</g>
<path d="M4.99999 30C17.3684 53.8248 16.7426 67.1764 4.99999 91" stroke="white" stroke-width="10"/>
<path d="M26 37C32.4904 58.1283 31.4667 67.701 26 83" stroke="white" stroke-width="10"/>
<path d="M42 45C45.9281 58.2646 45.4247 64.6352 42 75" stroke="white" stroke-width="10"/>
<path d="M308 52H338" stroke="white" stroke-width="3"/>
<path d="M308 60H338" stroke="white" stroke-width="3"/>
<path d="M308 69H338" stroke="white" stroke-width="3"/>
<path d="M308 78H331" stroke="white" stroke-width="3"/>
<path d="M304 88V42H339.185L344 51.3979V88H304Z" stroke="white" stroke-width="5"/>
<defs>
<filter id="filter0_d_77_12" x="47.9601" y="28.8" width="255.399" height="79.84" filterUnits="userSpaceOnUse" color-interpolation-filters="sRGB">
<feFlood flood-opacity="0" result="BackgroundImageFix"/>
<feColorMatrix in="SourceAlpha" type="matrix" values="0 0 0 0 0 0 0 0 0 0 0 0 0 0 0 0 0 0 127 0" result="hardAlpha"/>
<feOffset dy="10"/>
<feGaussianBlur stdDeviation="5"/>
<feComposite in2="hardAlpha" operator="out"/>
<feColorMatrix type="matrix" values="0 0 0 0 0 0 0 0 0 0 0 0 0 0 0 0 0 0 0.25 0"/>
<feBlend mode="normal" in2="BackgroundImageFix" result="effect1_dropShadow_77_12"/>
<feBlend mode="normal" in="SourceGraphic" in2="effect1_dropShadow_77_12" result="shape"/>
</filter>
</defs>
</svg>
